<svg width="120" height="120" viewBox="0 0 120 120" fill="none" xmlns="http://www.w3.org/2000/svg">
<g clip-path="url(#clip0)">
<path d="M17.6462 102.354C23.1444 107.852 29.5491 112.17 36.6828 115.187C44.0732 118.313 51.9182 119.898 60.0005 119.898C68.0825 119.898 75.9278 118.313 83.3181 115.187C90.4517 112.17 96.8565 107.852 102.355 102.354C107.853 96.8561 112.171 90.4514 115.188 83.3177C118.313 75.9274 119.899 68.0821 119.899 60.0002C119.899 51.9178 118.313 44.0727 115.188 36.6826C112.171 29.5488 107.853 23.1442 102.355 17.646C96.8565 12.1478 90.4519 7.83021 83.3181 4.81302C75.9276 1.68703 68.0825 0.102295 60.0005 0.102295C51.9182 0.102295 44.0732 1.68723 36.6828 4.81302C29.5491 7.83021 23.1444 12.148 17.6462 17.646C12.1481 23.144 7.83046 29.5488 4.81306 36.6824C1.68748 44.0727 0.102539 51.9178 0.102539 60.0002C0.102539 68.0823 1.68748 75.9274 4.81326 83.3177C7.83046 90.4514 12.1483 96.8561 17.6462 102.354ZM60.0005 8.84649C88.252 8.84649 111.154 31.7488 111.154 60.0002C111.154 88.2515 88.252 111.154 60.0005 111.154C31.749 111.154 8.84674 88.2515 8.84674 60.0002C8.84674 31.7488 31.749 8.84649 60.0005 8.84649Z" fill="#EA3433"/>
<path d="M60 120.001C51.9035 120.001 44.0451 118.413 36.6425 115.282C29.4966 112.259 23.0809 107.934 17.5737 102.427C12.0661 96.9195 7.74119 90.5036 4.71889 83.358C1.58759 75.9551 0 68.0965 0 60.001C0 51.9052 1.58759 44.0465 4.71868 36.6433C7.74098 29.4977 12.0661 23.0821 17.5735 17.5745C23.0809 12.0669 29.4968 7.74196 36.6423 4.71966C44.0455 1.58857 51.9041 0.000976562 59.9998 0.000976562C68.0961 0.000976562 75.9547 1.58857 83.357 4.71986C90.5028 7.74216 96.9185 12.0673 102.426 17.5747C107.934 23.0827 112.259 29.4984 115.281 36.6435C118.412 44.0467 120 51.9052 120 60.001C120 68.0965 118.412 75.9551 115.281 83.3582C112.259 90.5036 107.934 96.9193 102.426 102.427C96.9189 107.934 90.503 112.259 83.357 115.282C75.9547 118.413 68.0961 120.001 60 120.001ZM60 0.205089C51.9316 0.205089 44.1 1.78717 36.7222 4.90765C29.6009 7.91974 23.2068 12.23 17.718 17.7188C12.229 23.2078 7.91876 29.6016 4.90667 36.7227C1.78619 44.1008 0.204113 51.9326 0.204113 60.001C0.204113 68.0689 1.78619 75.901 4.90667 83.2788C7.91876 90.4001 12.229 96.794 17.718 102.283C23.2066 107.771 29.6005 112.082 36.7222 115.094C44.0992 118.214 51.931 119.796 60 119.796C68.069 119.796 75.9006 118.214 83.2779 115.094C90.3994 112.082 96.7934 107.771 102.282 102.283C107.771 96.7933 112.081 90.3995 115.093 83.2788C118.214 75.901 119.796 68.0692 119.796 60.001C119.796 51.9326 118.214 44.1008 115.093 36.7231C112.081 29.6022 107.771 23.2084 102.282 17.719C96.793 12.2302 90.3989 7.91994 83.2779 4.90785C75.9004 1.78717 68.0686 0.205089 60 0.205089ZM60 111.256C46.3091 111.256 33.4376 105.925 23.7567 96.2441C14.0758 86.563 8.7442 73.6918 8.7442 60.001C8.7442 46.3101 14.0756 33.4385 23.7567 23.7577C33.4376 14.0768 46.3091 8.74517 60 8.74517C73.6909 8.74517 86.5622 14.0768 96.2431 23.7577C105.924 33.4388 111.256 46.3101 111.256 60.001C111.256 73.6918 105.924 86.5632 96.2431 96.2441C86.5622 105.925 73.6907 111.256 60 111.256ZM60 8.94929C46.3636 8.94929 33.5435 14.2597 23.901 23.902C14.2587 33.5445 8.94831 46.3646 8.94831 60.001C8.94831 73.6374 14.2587 86.4575 23.901 96.0996C33.5433 105.742 46.3636 111.052 60 111.052C73.6364 111.052 86.4565 105.742 96.0988 96.0996C105.741 86.4575 111.051 73.6371 111.051 60.001C111.051 46.3646 105.741 33.5443 96.0988 23.902C86.4563 14.2595 73.6364 8.94929 60 8.94929Z" fill="#EA3433"/>
<path d="M37.7436 82.2553C38.5975 83.1093 39.7162 83.5361 40.8351 83.5361C41.9541 83.5361 43.073 83.1091 43.9266 82.2553L59.9989 66.183L76.0713 82.2553C76.9249 83.1093 78.0439 83.5361 79.1628 83.5361C80.2818 83.5361 81.4005 83.1091 82.2543 82.2553C83.9617 80.5483 83.9617 77.7799 82.2543 76.0725L66.1817 60.0002L82.2539 43.9278C83.9613 42.2204 83.9613 39.452 82.2539 37.7448C80.5469 36.0374 77.7785 36.0374 76.0711 37.7448L59.9987 53.8172L43.9264 37.7448C42.219 36.0374 39.4506 36.0374 37.7434 37.7448C36.036 39.4522 36.036 42.2204 37.7434 43.9278L53.8159 60.0002L37.7434 76.0725C36.0362 77.7799 36.0362 80.5483 37.7436 82.2553Z" fill="#EA3433"/>
<path d="M79.1632 83.6383C77.9679 83.6383 76.8445 83.1729 75.9994 82.3275L59.9992 66.3273L43.9992 82.3275C43.1542 83.1729 42.0306 83.6383 40.8355 83.6383C39.6404 83.6383 38.5168 83.1729 37.6717 82.3275C36.8267 81.4824 36.3613 80.359 36.3613 79.1641C36.3613 77.969 36.8267 76.8456 37.6717 76.0004L53.6719 60.0002L37.6717 44C35.9274 42.2554 35.9274 39.417 37.6717 37.6725C38.5168 36.8274 39.6402 36.3621 40.8355 36.3621C42.0306 36.3621 43.1542 36.8274 43.9992 37.6725L59.9994 53.6727L75.9996 37.6725C76.8449 36.8274 77.9683 36.3621 79.1634 36.3621C80.3583 36.3621 81.4817 36.8274 82.3267 37.6725C83.172 38.5175 83.6371 39.6411 83.6371 40.8362C83.6371 42.0313 83.172 43.1549 82.3267 44L66.3265 60.0002L82.3271 76.0004C83.1724 76.8456 83.6377 77.969 83.6377 79.1641C83.6377 80.359 83.1724 81.4824 82.3271 82.3275C81.4815 83.1727 80.3581 83.6383 79.1632 83.6383ZM59.9992 66.0386L76.1437 82.1832C76.95 82.9898 78.0224 83.4342 79.1632 83.4342C80.3036 83.4342 81.376 82.9898 82.1826 82.1832C82.9891 81.3769 83.4334 80.3047 83.4334 79.1641C83.4334 78.0235 82.9891 76.9511 82.1826 76.1447L66.0377 60.0002L82.1822 43.8557C82.9887 43.0492 83.4328 41.9768 83.4328 40.8362C83.4328 39.6956 82.9887 38.6234 82.1822 37.817C81.376 37.0105 80.3038 36.5664 79.1632 36.5664C78.0226 36.5664 76.9502 37.0105 76.1437 37.817L59.9992 53.9615L43.8547 37.817C43.0483 37.0105 41.9759 36.5664 40.8353 36.5664C39.6947 36.5664 38.6225 37.0105 37.816 37.817C36.1513 39.4819 36.1513 42.1907 37.816 43.8557L53.9606 60.0002L37.816 76.1447C37.0096 76.9511 36.5654 78.0235 36.5654 79.1641C36.5654 80.3047 37.0096 81.3769 37.816 82.1832C38.6227 82.9898 39.6949 83.4342 40.8355 83.4342C41.9761 83.4342 43.0483 82.9898 43.8549 82.1832L59.9992 66.0386Z" fill="#EA3433"/>
</g>
<defs>
<clipPath id="clip0">
<rect width="120" height="120" fill="white"/>
</clipPath>
</defs>
</svg>
